HIERARCHY
ROOT SpineBase
{
  OFFSET 0.000000 0.000000 0.000000
  CHANNELS 6 Xposition Yposition Zposition Zrotation Xrotation Yrotation
  JOINT SpineMid
  {
    OFFSET 0.000000 27.052709 0.000000
    CHANNELS 3 Zrotation Xrotation Yrotation
    JOINT SpineShoulder
    {
      OFFSET -0.274090 20.311207 -0.629381
      CHANNELS 3 Zrotation Xrotation Yrotation
      JOINT Neck
      {
        OFFSET -0.142101 6.815364 -0.495859
        CHANNELS 3 Zrotation Xrotation Yrotation
        JOINT Head
        {
          OFFSET -1.047661 12.024367 0.920010
          CHANNELS 3 Zrotation Xrotation Yrotation
          End Site
          {
            OFFSET 0 0 0
          }
        }
      }
      JOINT ShoulderLeft
      {
        OFFSET -12.225931 -2.181143 4.410683
        CHANNELS 3 Zrotation Xrotation Yrotation
        JOINT ElbowLeft
        {
          OFFSET -6.357541 -18.808483 -0.569823
          CHANNELS 3 Zrotation Xrotation Yrotation
          JOINT WristLeft
          {
            OFFSET -12.505905 -16.592937 1.061994
            CHANNELS 3 Zrotation Xrotation Yrotation
            JOINT HandLeft
            {
              OFFSET -2.427337 -0.695654 -1.838715
              CHANNELS 3 Zrotation Xrotation Yrotation
              JOINT HandTipLeft
              {
                OFFSET -1.127724 -1.593022 -2.191079
                CHANNELS 3 Zrotation Xrotation Yrotation
                End Site
                {
                  OFFSET 0 0 0
                }
              }
              JOINT ThumbLeft
              {
                OFFSET 0.985451 -0.415396 -3.000002
                CHANNELS 3 Zrotation Xrotation Yrotation
                End Site
                {
                  OFFSET 0 0 0
                }
              }
            }
          }
        }
      }
      JOINT ShoulderRight
      {
        OFFSET 11.379731 -1.868019 -7.635401
        CHANNELS 3 Zrotation Xrotation Yrotation
        JOINT ElbowRight
        {
          OFFSET 0.242460 -17.535245 -6.075150
          CHANNELS 3 Zrotation Xrotation Yrotation
          JOINT WristRight
          {
            OFFSET 5.634412 -19.399092 -11.293077
            CHANNELS 3 Zrotation Xrotation Yrotation
            JOINT HandRight
            {
              OFFSET -2.287237 -3.035442 -1.395403
              CHANNELS 3 Zrotation Xrotation Yrotation
              JOINT HandTipRight
              {
                OFFSET -1.951106 -2.433260 -1.330611
                CHANNELS 3 Zrotation Xrotation Yrotation
                End Site
                {
                  OFFSET 0 0 0
                }
              }
              JOINT ThumbRight
              {
                OFFSET -1.620641 1.678660 -3.131133
                CHANNELS 3 Zrotation Xrotation Yrotation
                End Site
                {
                  OFFSET 0 0 0
                }
              }
            }
          }
        }
      }
    }
  }
  JOINT HipLeft
  {
    OFFSET -7.102860 1.266534 -1.447281
    CHANNELS 3 Zrotation Xrotation Yrotation
    JOINT KneeLeft
    {
      OFFSET -16.176541 10.601473 -23.215434
      CHANNELS 3 Zrotation Xrotation Yrotation
      JOINT AnkleLeft
      {
        OFFSET -8.391253 -35.729757 1.385433
        CHANNELS 3 Zrotation Xrotation Yrotation
        JOINT FootLeft
        {
          OFFSET -4.237366 -2.810300 -9.858887
          CHANNELS 3 Zrotation Xrotation Yrotation
          End Site
          {
            OFFSET 0 0 0
          }
        }
      }
    }
  }
  JOINT HipRight
  {
    OFFSET 6.620325 1.236665 -4.917998
    CHANNELS 3 Zrotation Xrotation Yrotation
    JOINT KneeRight
    {
      OFFSET -18.206776 11.992755 -24.596411
      CHANNELS 3 Zrotation Xrotation Yrotation
      JOINT AnkleRight
      {
        OFFSET 1.330724 -39.642390 2.658496
        CHANNELS 3 Zrotation Xrotation Yrotation
        JOINT FootRight
        {
          OFFSET -5.103951 -2.055571 -12.339168
          CHANNELS 3 Zrotation Xrotation Yrotation
          End Site
          {
            OFFSET 0 0 0
          }
        }
      }
    }
  }
}
MOTION
Frames: 10
Frame Time: 0.033333
27.392114 34.916661 393.061903 -0.000000 0.000000 14.193003 0.000000 0.000000 -14.193003 -0.000000 0.000000 0.000000 -0.000000 0.000000 0.000000 0.000000 0.000000 0.000000 -0.000000 0.000000 0.000000 -0.000000 0.000000 0.000000 -0.000000 0.000000 0.000000 -0.000000 0.000000 0.000000 0.000000 0.000000 0.000000 0.000000 0.000000 0.000000 -0.000000 0.000000 0.000000 -0.000000 0.000000 0.000000 -0.000000 0.000000 0.000000 -0.000000 0.000000 0.000000 0.000000 0.000000 0.000000 0.000000 0.000000 0.000000 0.000000 0.000000 -14.193003 -0.000000 0.000000 0.000000 -0.000000 0.000000 0.000000 0.000000 0.000000 0.000000 0.000000 0.000000 -14.193003 -0.000000 0.000000 0.000000 -0.000000 0.000000 0.000000 0.000000 0.000000 0.000000
27.258192 35.024506 393.129861 -0.038580 -0.156624 13.773612 0.074760 0.142935 -13.773758 -0.000000 0.000000 0.000000 -0.000000 0.000000 0.000000 0.000000 0.000000 0.000000 -0.000000 0.000000 0.000000 -0.000000 0.000000 0.000000 -2.484413 0.786278 3.510657 0.064165 1.246681 -1.551472 0.000000 0.000000 0.000000 0.000000 0.000000 0.000000 -0.588561 -0.576167 0.193335 0.590532 0.574147 -0.199253 9.467891 -11.632947 6.056617 -6.346290 11.151875 -4.851775 0.000000 0.000000 0.000000 0.000000 0.000000 0.000000 0.074760 0.142935 -13.773758 -0.000000 0.000000 0.000000 -1.394152 3.700761 -0.570650 0.000000 0.000000 0.000000 0.074760 0.142935 -13.773758 -0.000000 0.000000 0.000000 0.306198 -0.943532 0.537427 0.000000 0.000000 0.000000
27.118922 35.105901 393.201266 -0.103174 -0.310274 13.435211 0.172443 0.277810 -13.435909 -0.000000 0.000000 0.000000 -0.476029 1.063866 0.133491 0.000000 0.000000 0.000000 0.275462 0.908575 -0.317829 -0.812189 -1.464913 0.681911 -4.474382 2.010499 6.718615 1.136768 1.704647 -3.777766 0.000000 0.000000 0.000000 0.000000 0.000000 0.000000 -1.123730 -1.127215 0.363980 1.131084 1.119836 -0.386089 18.426421 -20.098402 12.571165 -10.532084 19.260834 -7.915334 0.000000 0.000000 0.000000 0.000000 0.000000 0.000000 0.558992 0.161330 -12.595538 -0.402643 0.029388 -0.841749 -2.139458 5.697501 -0.818908 0.000000 0.000000 0.000000 0.172443 0.277810 -13.435909 -0.000000 0.000000 0.000000 0.625475 -1.890361 1.070328 0.000000 0.000000 0.000000
26.974304 35.160846 393.276119 -0.193741 -0.460739 13.179523 0.293694 0.404426 -13.181338 -0.503149 -0.680538 -0.053767 -0.167037 2.138547 0.242354 0.000000 0.000000 0.000000 0.881022 1.880291 -0.377793 -1.145612 -2.005965 0.940567 -6.646393 2.758516 9.911012 2.765752 1.521776 -6.292453 0.000000 0.000000 0.000000 0.000000 0.000000 0.000000 -1.096984 -0.968820 0.578454 1.616649 1.633190 -0.557724 25.810732 -25.428893 18.272532 -12.574045 23.631712 -9.742657 0.000000 0.000000 0.000000 0.000000 0.000000 0.000000 0.814301 0.261003 -12.043354 0.428012 0.185507 -1.145976 -3.423437 6.358887 -0.887441 0.000000 0.000000 0.000000 0.545539 -0.463388 -13.462398 -0.446989 0.785328 0.284252 0.955457 -2.833054 1.593363 0.000000 0.000000 0.000000
26.824340 35.189341 393.354420 -0.310168 -0.607814 13.008044 -0.365048 -0.026580 -13.038317 -0.002783 -0.136359 -0.036626 -0.169425 2.611904 0.302807 0.000000 0.000000 0.000000 1.122688 2.242847 -0.435564 -1.432874 -2.425483 1.149564 -8.499216 3.323987 12.602103 4.565335 0.831293 -8.729614 0.000000 0.000000 0.000000 0.000000 0.000000 0.000000 -1.353075 -1.284374 0.727406 2.042987 2.110807 -0.711600 31.214705 -28.505110 22.521142 -12.751617 24.539365 -10.746342 0.000000 0.000000 0.000000 0.000000 0.000000 0.000000 1.053288 0.370434 -11.657626 0.570185 0.257942 -1.376778 -3.635661 6.150856 -0.800948 0.000000 0.000000 0.000000 0.704099 -0.488502 -13.410801 -0.492337 0.921837 0.402993 1.293098 -3.763313 2.100468 0.000000 0.000000 0.000000
26.669027 35.191387 393.436168 -0.452272 -0.751304 12.922059 -0.372614 -0.008675 -12.959628 -0.004547 -0.153229 -0.044740 -0.144249 2.964738 0.351057 0.000000 0.000000 0.000000 1.340080 2.482532 -0.461041 -1.674981 -2.726303 1.311585 -9.836286 3.742123 14.516244 6.253225 -0.240764 -10.798705 0.000000 0.000000 0.000000 0.000000 0.000000 0.000000 -1.549646 -1.589258 0.852824 4.052020 3.163990 -1.687146 33.614894 -30.224739 26.325976 -11.347923 22.417675 -11.029463 0.000000 0.000000 0.000000 0.000000 0.000000 0.000000 1.276001 0.487815 -11.439550 0.711663 0.337649 -1.531803 -3.459667 4.969310 -0.556760 0.000000 0.000000 0.000000 0.849069 -0.449959 -13.457756 -0.485254 0.995468 0.533214 1.634659 -4.672087 2.584886 0.000000 0.000000 0.000000
26.520960 35.161439 393.555827 -0.597142 -0.926771 13.012900 -0.359487 0.029891 -13.057784 -0.016864 -0.162709 -0.052869 -0.064328 3.257703 0.387453 0.000000 0.000000 0.000000 1.583906 2.759613 -0.501903 -2.061089 -3.211930 1.578082 -9.380228 4.050059 14.301195 8.091508 -0.242091 -13.400999 0.000000 0.000000 0.000000 0.000000 0.000000 0.000000 -1.261772 -1.859780 0.810912 6.863500 4.108752 -3.345125 32.560944 -30.712149 29.668159 -5.607976 15.345286 -11.882773 0.000000 0.000000 0.000000 0.000000 0.000000 0.000000 1.431630 0.630746 -11.591836 0.803483 0.477868 -1.508627 -2.004507 0.744300 0.117737 0.000000 0.000000 0.000000 0.957155 -0.301440 -13.705901 -0.415392 0.999942 0.685816 2.452193 -6.682582 3.406980 0.000000 0.000000 0.000000
26.369849 35.082943 393.636400 -0.782955 -1.069873 13.175319 -0.304355 0.058303 -13.228126 -0.030558 -0.180524 -0.061020 0.078150 3.500160 0.413131 0.000000 0.000000 0.000000 1.742745 2.789853 -0.461155 -2.190089 -3.388460 1.732826 -9.239622 4.399804 14.002969 8.449895 -3.840297 -12.567915 0.000000 0.000000 0.000000 0.000000 0.000000 0.000000 -1.431815 -2.482974 0.913358 12.012835 5.482529 -6.383508 32.301053 -32.268417 37.142997 -0.552882 8.366405 -11.841393 0.000000 0.000000 0.000000 0.000000 0.000000 0.000000 1.609482 0.801138 -11.773544 0.926293 0.585909 -1.535577 -0.617964 -3.239145 0.928443 0.000000 0.000000 0.000000 1.056152 -0.045217 -13.976354 -0.056562 1.694512 0.825629 2.788591 -8.841358 4.027129 0.000000 0.000000 0.000000
26.215611 35.006079 393.694549 -0.969916 -1.146269 13.518895 -0.199332 0.098658 -13.577409 -0.023642 -0.175562 -0.064599 0.019891 3.391631 0.424522 0.000000 0.000000 0.000000 1.813594 2.581248 -0.379595 -2.207148 -3.291788 1.753447 -9.512910 5.262140 12.569422 9.662770 -5.022746 -12.170968 0.000000 0.000000 0.000000 0.000000 0.000000 0.000000 -1.365692 -2.560851 0.923622 13.123418 5.572530 -7.082174 31.703898 -31.611859 36.843666 0.775283 5.089500 -10.142740 0.000000 0.000000 0.000000 0.000000 0.000000 0.000000 1.753760 0.859108 -12.231853 1.045445 0.679933 -1.451440 0.533096 -6.368438 1.645657 0.000000 0.000000 0.000000 1.141047 0.202959 -14.372554 0.187302 1.560514 0.879862 1.773230 -6.512885 2.457042 0.000000 0.000000 0.000000
26.041194 34.949621 393.791672 -1.177892 -1.284636 13.567847 -0.082685 0.161704 -13.633827 -0.019830 -0.161750 -0.068997 -0.073740 3.255867 0.438597 0.000000 0.000000 0.000000 1.855675 2.008955 -0.160055 -1.983392 -2.316762 1.321620 -9.644380 5.869382 10.122069 11.051270 -8.032724 -10.149386 0.000000 0.000000 0.000000 0.000000 0.000000 0.000000 -1.279652 -2.415599 0.942502 11.906576 5.226622 -6.358338 26.358672 -28.275275 28.616897 4.726371 -2.989260 -3.828571 0.000000 0.000000 0.000000 0.000000 0.000000 0.000000 1.948154 0.974985 -12.357029 1.201984 0.792515 -1.411735 1.137987 -8.309978 2.295661 0.000000 0.000000 0.000000 1.249290 0.363155 -14.648399 0.397201 1.565974 1.106444 2.939684 -9.706546 4.671590 0.000000 0.000000 0.000000
